<svg xmlns="http://www.w3.org/2000/svg" viewBox="0 0 800 500" role="img" aria-labelledby="title desc"><title id="title">Software modernization illustration</title><desc id="desc">A legacy system transitioning into a cleaner modern application architecture.</desc><rect width="800" height="500" rx="24" fill="#f7f9fc"/><g stroke="#1677ff" stroke-width="4"><rect x="90" y="125" width="230" height="230" rx="16" fill="#11151b"/><path d="M125 170h130M125 205h95M125 240h120M125 275h80M125 310h110" fill="none"/><path d="M355 240h90" fill="none" stroke-dasharray="10 10"/><path d="M425 220l30 20-30 20z" fill="#1677ff"/><rect x="480" y="100" width="230" height="280" rx="16" fill="#fff"/><rect x="515" y="145" width="160" height="50" rx="8" fill="#11151b"/><rect x="515" y="220" width="70" height="55" rx="8" fill="#f7f9fc"/><rect x="605" y="220" width="70" height="55" rx="8" fill="#f7f9fc"/><rect x="515" y="300" width="160" height="30" rx="8" fill="#1677ff"/></g><g fill="#11151b" font-family="Arial,sans-serif" font-size="20" font-weight="700"><text x="145" y="390">LEGACY</text><text x="545" y="415">MODERN</text></g></svg>